<svg xmlns="http://www.w3.org/2000/svg" width="512" height="512" viewBox="0 0 512 512"><rect width="512" height="512" rx="112" fill="#102b25"/><circle cx="256" cy="256" r="185" fill="#193c30"/><path d="M256 398V245M256 329Q152 340 162 256Q236 251 256 329M256 294Q351 312 350 232Q277 223 256 294" fill="#65896b" stroke="#e7c985" stroke-width="12" stroke-linejoin="round"/><g fill="#f0d399"><ellipse cx="256" cy="169" rx="29" ry="58"/><ellipse cx="256" cy="169" rx="29" ry="58" transform="rotate(72 256 218)"/><ellipse cx="256" cy="169" rx="29" ry="58" transform="rotate(144 256 218)"/><ellipse cx="256" cy="169" rx="29" ry="58" transform="rotate(216 256 218)"/><ellipse cx="256" cy="169" rx="29" ry="58" transform="rotate(288 256 218)"/></g><circle cx="256" cy="218" r="25" fill="#fff0bc"/></svg>
